<?xml version="1.0" standalone="no"?>
<!DOCTYPE svg PUBLIC "-//W3C//DTD SVG 20010904//EN"
 "http://www.w3.org/TR/2001/REC-SVG-20010904/DTD/svg10.dtd">
<svg version="1.0" xmlns="http://www.w3.org/2000/svg"
 width="512.000000pt" height="512.000000pt" viewBox="0 0 512.000000 512.000000"
 preserveAspectRatio="xMidYMid meet">
<metadata>
Created by potrace 1.14, written by Peter Selinger 2001-2017
</metadata>
<g transform="translate(0.000000,512.000000) scale(0.100000,-0.100000)"
fill="#000000" stroke="none">
<path d="M2419 4556 c-2 -2 -38 -6 -79 -10 -106 -9 -286 -48 -415 -91 -128
-42 -336 -142 -450 -216 -153 -99 -344 -268 -442 -389 -15 -19 -36 -44 -46
-55 -70 -77 -245 -377 -272 -465 -4 -14 -11 -29 -15 -35 -8 -11 -51 -141 -73
-225 -21 -75 -45 -202 -54 -280 -10 -84 -10 -366 0 -452 32 -299 152 -629 320
-881 33 -51 63 -94 66 -97 3 -3 24 -27 46 -55 46 -59 42 -54 125 -140 149
-156 346 -299 545 -395 117 -57 159 -74 161 -68 0 2 7 -2 15 -8 27 -22 257
-88 348 -100 25 -3 49 -8 52 -10 15 -9 186 -19 319 -19 134 1 249 8 303 20 12
2 36 6 52 9 17 2 76 15 133 30 559 142 1042 536 1295 1056 82 168 148 361 171
500 3 19 8 46 11 60 20 95 27 395 12 540 -4 41 -18 127 -31 190 -141 676 -635
1243 -1283 1473 -137 49 -188 62 -363 93 -75 13 -441 29 -451 20z"/>
</g>
</svg>
